<?xml version="1.0" encoding="UTF-8"?>
<svg width="214px" height="214px" viewBox="0 0 214 214" version="1.1" xmlns="http://www.w3.org/2000/svg" xmlns:xlink="http://www.w3.org/1999/xlink">
    <title>Bitcoin</title>
    <g id="V1" stroke="none" stroke-width="1" fill="none" fill-rule="evenodd" opacity="0.10361953">
        <g id="Jetpack_Landing-page_V2" transform="translate(-1099.000000, -1492.000000)" fill="#000000" fill-rule="nonzero">
            <g id="ABOUT" transform="translate(145.000000, 779.000000)">
                <g id="Bitcon" transform="translate(761.000000, 663.000000)">
                    <g id="Bitcoin" transform="translate(193.000000, 50.000000)">
                        <rect id="Rectangle" opacity="0" x="0" y="0" width="214" height="214"></rect>
                        <path d="M107.5,200 C55.8613759,200 14,158.138624 14,106.5 C14,54.8613759 55.8613759,13 107.5,13 C159.138624,13 201,54.8613759 201,106.5 C201,158.138624 159.138624,200 107.5,200 L107.5,200 Z M107.5,26.3571429 C63.2383222,26.3571429 27.3571429,62.2383222 27.3571429,106.5 C27.3571429,150.761678 63.2383222,186.642857 107.5,186.642857 C151.761678,186.642857 187.642857,150.761678 187.642857,106.5 C187.642857,62.2383222 151.761678,26.3571429 107.5,26.3571429 Z" id="Shape"></path>
                        <path d="M79.2663771,69.0120827 L109.766553,69.0120827 C114.217905,68.9404226 118.668687,69.1875832 123.085407,69.7517046 C125.931892,70.2541795 128.649413,71.3288362 131.076719,72.9119074 C133.499452,74.6678885 135.48322,76.9701351 136.870421,79.6357429 C138.475784,82.3589645 139.305389,85.4768058 139.267815,88.6456826 C139.283069,92.1817499 138.263723,95.6436202 136.337667,98.5969592 C134.432936,101.546351 131.728256,103.880402 128.546137,105.320795 C132.729374,106.372775 136.479735,108.724722 139.267815,112.04463 C141.757991,115.395166 143.070319,119.488533 142.997094,123.676866 C142.996359,127.233454 142.151433,130.738072 140.533106,133.897096 C139.038311,137.084053 136.742185,139.819686 133.873679,141.831222 C130.801386,143.921476 127.245145,145.172408 123.551567,145.462093 C121.020985,145.798285 114.827717,145.932762 104.971765,146 L79,146 L79.2663771,69.0120827 Z M94.7162478,81.7873703 L94.7162478,99.9417264 L115.95982,99.9417264 C118.303779,99.7996157 120.521866,98.8227954 122.219681,97.1849538 C125.050904,93.7835687 125.050904,88.8196266 122.219681,85.4182415 C120.716798,83.773838 118.638713,82.7850387 116.42598,82.6614689 L103.107126,82.6614689 L94.7162478,81.7873703 Z M94.7162478,112.448061 L94.7162478,133.022997 L108.967422,133.022997 C112.481526,133.146824 115.999825,132.989442 119.489316,132.552329 C121.665663,132.246221 123.655619,131.145943 125.083235,129.459365 C126.67371,127.603194 127.464753,125.182909 127.280846,122.735529 C127.318828,120.661251 126.738813,118.623279 125.615989,116.885792 C124.415384,115.202857 122.711271,113.953659 120.754607,113.322159 C116.270846,112.357637 111.680462,111.995898 107.102782,112.246345 L94.7162478,112.448061 Z" id="Shape"></path>
                        <path d="M101,143.28125 L114,143.28125 L114,160 L101,160 L101,143.28125 Z M101,53 L114,53 L114,73.0625 L101,73.0625 L101,53 Z" id="Shape"></path>
                    </g>
                </g>
            </g>
        </g>
    </g>
</svg>