<?xml version="1.0" encoding="UTF-8"?>
<svg width="52px" height="44px" viewBox="0 0 52 44" version="1.1" xmlns="http://www.w3.org/2000/svg" xmlns:xlink="http://www.w3.org/1999/xlink">
    <title>Loog</title>
    <defs>
        <linearGradient x1="33.2409972%" y1="0%" x2="66.7590028%" y2="100%" id="linearGradient-1">
            <stop stop-color="#1D3EDE" offset="0%"></stop>
            <stop stop-color="#01E4F8" offset="100%"></stop>
        </linearGradient>
    </defs>
    <g id="V1" stroke="none" stroke-width="1" fill="none" fill-rule="evenodd">
        <g id="Jetpack_Landing-page_V2" transform="translate(-585.000000, -70.000000)" fill="url(#linearGradient-1)">
            <g id="Header" transform="translate(144.500000, 70.000000)">
                <g id="Loog" transform="translate(441.000000, 0.000000)">
                    <path d="M12.3596091,21.805952 L8.9663337,25.1922571 C7.68828836,26.4669898 6.97020103,28.1960925 6.97020103,29.999592 L6.97020103,38 L17.7800426,27.2144535 L17.7980573,27.2324285 L21.1417922,23.8735854 C22.2892307,22.7206838 22.2857278,20.8587652 21.1332852,19.7108567 L1.62983306,0.280295925 C1.02784069,-0.318873366 0,0.106037523 0,0.954860685 L0,6.64297448 C0,8.46844359 0.712582832,10.1845643 2.00614085,11.4752748 L12.3596091,21.805952 Z" id="Fill-1"></path>
                    <path d="M49.0114097,32.5298341 L38.6244236,22.1869005 L42.0709778,18.7545552 C43.3200139,17.5113278 44.0208032,15.8280818 44.0208032,14.0739937 L44.0208032,6 L33.1928031,16.7819545 L33.1746793,16.7639945 L29.8605299,20.084589 C28.7197335,21.228039 28.7121819,23.066439 29.8439164,24.2188689 L33.1761896,27.6118021 L33.1943134,27.5938422 L49.3930177,43.7233707 C49.9845603,44.3130556 51,43.8974824 51,43.0658371 L51,37.3096743 C51,35.5046996 50.2936729,33.8074847 49.0114097,32.5298341" id="Fill-4"></path>
                </g>
            </g>
        </g>
    </g>
</svg>