<?xml version="1.0" encoding="UTF-8"?>
<svg width="194px" height="237px" viewBox="0 0 194 237" version="1.1" xmlns="http://www.w3.org/2000/svg" xmlns:xlink="http://www.w3.org/1999/xlink">
    <title>light-bulb</title>
    <defs>
        <polygon id="path-1" points="0.02784689 0.18 193.572086 0.18 193.572086 9.86157895 0.02784689 9.86157895"></polygon>
    </defs>
    <g id="V1" stroke="none" stroke-width="1" fill="none" fill-rule="evenodd" opacity="0.101052989">
        <g id="Jetpack_Landing-page_V2" transform="translate(-724.000000, -1489.000000)">
            <g id="ABOUT" transform="translate(145.000000, 779.000000)">
                <g id="Dev" transform="translate(380.000000, 663.000000)">
                    <g id="light-bulb" transform="translate(199.000000, 47.000000)">
                        <path d="M141.385058,139.811326 C130.820674,150.6686 124.587335,164.511358 123.572065,179.176771 L116.584127,179.176771 L116.584127,96.5324757 C116.584127,95.686635 116.332284,94.8598072 115.85973,94.1572586 L99.0499265,69.1344708 C98.2562967,67.9533544 96.9250617,67.2447774 95.5004312,67.2447774 C94.0758006,67.2447774 92.744101,67.9533544 91.9509358,69.1344708 L75.1406672,94.1572586 C74.669043,94.8593435 74.4167356,95.6861713 74.4167356,96.5324757 L74.4167356,179.176771 L67.4274034,179.176771 C66.4084162,164.529444 60.1602078,150.669527 49.5698037,139.764953 C38.1681128,128.023348 31.7698211,112.558468 31.5532921,96.2185316 C31.3283993,79.2650828 37.781985,63.1778788 49.7245336,50.9192169 C61.6689408,38.6587001 77.5986893,31.7755786 94.5790214,31.5372222 C94.8884813,31.5311937 95.1974765,31.5311937 95.5064717,31.5311937 C112.425934,31.5311937 128.338026,38.0359128 140.40092,49.9068977 C152.686848,61.9972261 159.453146,78.1382226 159.453146,95.3564604 C159.453146,112.049294 153.036268,127.837393 141.385058,139.811326 Z M100.339807,216.24305 L90.6610551,216.24305 C81.2824697,216.24305 73.1984116,210.62869 69.5903699,202.594131 L121.410492,202.594131 C117.801986,210.62869 109.718393,216.24305 100.339807,216.24305 Z M102.322023,224.910135 C102.322023,226.873098 100.721753,228.470179 98.7548709,228.470179 L92.24785,228.470179 C90.2809678,228.470179 88.6806978,226.873098 88.6806978,224.910135 L88.6806978,224.705167 C89.3363253,224.745512 89.9952053,224.773335 90.6615197,224.773335 L100.340737,224.773335 C101.006586,224.773335 101.666396,224.745512 102.322952,224.705167 L102.322952,224.910135 L102.322023,224.910135 Z M82.9640542,102.537759 C85.6748482,103.290854 88.4395422,103.798173 91.2265396,104.05276 L91.2265396,179.176771 L82.9640542,179.176771 L82.9640542,102.537759 Z M92.9508722,82.963781 L95.5004312,79.169091 L98.0499901,82.963781 C97.2196526,83.1469537 96.3665471,83.2420181 95.5013605,83.2420181 C94.6347799,83.2420181 93.7812097,83.1469537 92.9508722,82.963781 Z M87.9985851,90.3361361 C90.3673935,91.278896 92.9044068,91.7723031 95.5008958,91.7723031 C98.0964556,91.7723031 100.63254,91.2784323 103.001813,90.3361361 L105.690768,94.3390401 C99.0341282,96.1781872 91.9653401,96.1781872 85.3091652,94.3390401 L87.9985851,90.3361361 Z M99.7743228,104.05276 C102.560856,103.798637 105.326014,103.290854 108.036808,102.537759 L108.036808,179.176771 L99.7743228,179.176771 L99.7743228,104.05276 Z M67.5784161,193.206875 L67.5784161,187.707056 L123.421982,187.707056 L123.421982,193.206875 C123.421982,193.493923 123.41083,193.779116 123.400607,194.063846 L67.6002549,194.063846 C67.5895678,193.779116 67.5784161,193.493923 67.5784161,193.206875 Z M146.401932,43.8320548 C132.476238,30.1288788 114.031315,22.7324099 94.4582112,23.0074009 C54.5313839,23.5675848 22.4781261,56.4603083 23.0064382,96.3312176 C23.2522404,114.85717 30.505961,132.390279 43.4321831,145.701604 C53.4914872,156.060371 59.0310975,169.463051 59.0310975,183.441681 L59.0310975,193.206875 C59.0310975,206.929528 67.8539562,218.629397 80.1333793,222.968504 L80.1333793,224.909208 C80.1333793,231.576232 85.567513,237 92.24785,237 L98.7548709,237 C105.434743,237 110.869342,231.576232 110.869342,224.909208 L110.869342,222.968041 C123.147371,218.628006 131.9693,206.929064 131.9693,193.206875 L131.9693,183.441681 C131.9693,169.442183 137.490324,156.058052 147.516173,145.754933 C160.725835,132.18021 168,114.281683 168,95.3559966 C168,75.8362745 160.330414,57.5380132 146.401932,43.8320548 L146.401932,43.8320548 Z" id="Fill-1" fill="#0A0B09"></path>
                        <path d="M113.596641,40.1642531 C111.266442,39.5210067 108.836506,40.8240994 108.170326,43.0761534 C107.503669,45.3282074 108.853209,47.676172 111.183885,48.3194184 C132.990789,54.3428789 148.22131,73.8505359 148.22131,95.759185 C148.22131,98.1011551 150.186446,100 152.610655,100 C155.034387,100 157,98.1011551 157,95.759185 C157,70.0842015 139.151524,47.2224412 113.596641,40.1642531" id="Fill-2" fill="#0A0B09"></path>
                        <path d="M99.7280401,38.1005695 C98.3133905,38.0160143 96.8800754,37.9847773 95.4556019,38.0068586 C92.9603171,38.0445584 90.9660542,40.2930825 91.000438,43.0284727 C91.0348219,45.7407045 93.0506975,47.913829 95.5170016,47.913829 C95.5381231,47.913829 95.5592446,47.913829 95.5808573,47.9127519 C96.8000102,47.8944405 98.026531,47.9208304 99.2358599,47.9929986 C99.3198548,47.9978457 99.4028672,48 99.4858796,48 C101.86868,48 103.862452,45.956132 103.99311,43.3160684 C104.129663,40.5849867 102.219886,38.2502916 99.7280401,38.1005695" id="Fill-3" fill="#0A0B09"></path>
                        <g id="Group-7" transform="translate(0.000000, 92.000000)">
                            <mask id="mask-2" fill="white">
                                <use xlink:href="#path-1"></use>
                            </mask>
                            <g id="Clip-5"></g>
                            <path d="M189.303158,0.18 L181.848545,0.18 C179.491306,0.18 177.580081,2.34736842 177.580081,5.02052632 C177.580081,7.69421053 179.491306,9.86157895 181.848545,9.86157895 L189.303158,9.86157895 C191.660397,9.86157895 193.572086,7.69421053 193.572086,5.02052632 C193.572086,2.34736842 191.660397,0.18 189.303158,0.18" id="Fill-4" fill="#0A0B09" mask="url(#mask-2)"></path>
                            <path d="M15.9850431,5.02052632 C15.9850431,2.34736842 14.0738182,0.18 11.7165789,0.18 L4.26892823,0.18 C1.91122488,0.18 0,2.34736842 0,5.02052632 C0,7.69421053 1.91122488,9.86157895 4.26892823,9.86157895 L11.7156507,9.86157895 C14.0738182,9.86157895 15.9850431,7.69421053 15.9850431,5.02052632" id="Fill-6" fill="#0A0B09" mask="url(#mask-2)"></path>
                        </g>
                        <path d="M170.560199,60 C171.332781,60 172.11626,59.804228 172.833375,59.3930083 L179.721743,55.443135 C181.900327,54.1937355 182.646662,51.4268566 181.389234,49.2630344 C180.131311,47.0982284 177.345555,46.3579346 175.166971,47.6068422 L168.278108,51.5572074 C166.099523,52.806115 165.353189,55.5734857 166.611112,57.737308 C167.454515,59.1883822 168.985814,60 170.560199,60" id="Fill-8" fill="#0A0B09"></path>
                        <path d="M22.1640222,134.607251 L15.2789757,138.554804 C13.0995614,139.804068 12.3529423,142.572226 13.6113447,144.736664 C14.4550689,146.188151 15.9869509,147 17.5619356,147 C18.3343173,147 19.1180939,146.804172 19.8359778,146.392836 L26.7210243,142.445282 C28.9004386,141.195527 29.6470577,138.427861 28.3886553,136.263423 C27.1307483,134.098493 24.3434365,133.357496 22.1640222,134.607251" id="Fill-9" fill="#0A0B09"></path>
                        <path d="M137.262775,28.3893575 C137.975017,28.803386 138.753171,29 139.520504,29 C141.08419,29 142.60459,28.1833338 143.442754,26.721853 L147.393041,19.8334297 C148.642416,17.6548278 147.901153,14.8690502 145.737373,13.6111169 C143.573102,12.3531835 140.80677,13.0995243 139.557395,15.2781262 L135.606616,22.1670447 C134.357733,24.3451513 135.098996,27.1309289 137.262775,28.3893575" id="Fill-10" fill="#0A0B09"></path>
                        <path d="M96.9997282,17 C99.7613482,17 102,14.9683083 102,12.4619961 L102,4.53800389 C102,2.03169167 99.7613482,0 96.9997282,0 C94.2386518,0 92,2.03169167 92,4.53800389 L92,12.4619961 C92,14.9683083 94.2386518,17 96.9997282,17" id="Fill-11" fill="#0A0B09"></path>
                        <path d="M51.5576554,26.721853 C52.3953115,28.1833338 53.9161765,29 55.4793423,29 C56.2466609,29 57.0252926,28.803386 57.7375217,28.3893575 C59.9007701,27.1314242 60.6425114,24.3456466 59.3931593,22.1670447 L55.442452,15.2781262 C54.1935917,13.0995243 51.4253421,12.3531835 49.2625856,13.6111169 C47.0988454,14.8690502 46.3575959,17.6548278 47.606948,19.8334297 L51.5576554,26.721853" id="Fill-12" fill="#0A0B09"></path>
                        <path d="M15.2781726,55.443213 L22.1668928,59.3930187 C22.8839932,59.8042313 23.6674551,60 24.4400218,60 C26.0143742,60 27.5451458,59.1883961 28.3890264,57.7373467 C29.6469236,55.5735615 28.900109,52.8062382 26.7215699,51.5573519 L19.833345,47.6070544 C17.6548058,46.3571844 14.8691085,47.099433 13.6112113,49.2632182 C12.352819,51.4270034 13.1001287,54.1938349 15.2781726,55.443213" id="Fill-13" fill="#0A0B09"></path>
                        <path d="M179.720426,138.554877 L172.83568,134.607357 C170.65636,133.357121 167.86917,134.099095 166.611318,136.263515 C165.352971,138.427934 166.099557,141.195577 168.278876,142.445321 L175.164118,146.392841 C175.881475,146.804174 176.665218,147 177.438061,147 C179.012482,147 180.544297,146.188158 181.388479,144.736683 C182.647322,142.572264 181.90024,139.804129 179.720426,138.554877" id="Fill-14" fill="#0A0B09"></path>
                    </g>
                </g>
            </g>
        </g>
    </g>
</svg>