<?xml version="1.0" encoding="UTF-8"?>
<svg width="160px" height="221px" viewBox="0 0 160 221" version="1.1" xmlns="http://www.w3.org/2000/svg" xmlns:xlink="http://www.w3.org/1999/xlink">
    <title>pencil-case</title>
    <defs>
        <polygon id="path-1" points="0 0 160 0 160 221 0 221"></polygon>
    </defs>
    <g id="V1" stroke="none" stroke-width="1" fill="none" fill-rule="evenodd" opacity="0.110450634">
        <g id="Jetpack_Landing-page_V2" transform="translate(-348.000000, -1489.000000)">
            <g id="ABOUT" transform="translate(145.000000, 779.000000)">
                <g id="Branding" transform="translate(0.000000, 663.000000)">
                    <g id="pencil-case" transform="translate(203.000000, 47.000000)">
                        <mask id="mask-2" fill="white">
                            <use xlink:href="#path-1"></use>
                        </mask>
                        <g id="Clip-2"></g>
                        <path d="M94.9997887,156.956331 C92.8184281,156.956331 91.0436687,155.181572 91.0436687,152.999789 C91.0436687,150.818005 92.8184281,149.043669 94.9997887,149.043669 C97.1815719,149.043669 98.9563313,150.818428 98.9563313,152.999789 C98.9563313,155.181149 97.1819946,156.956331 94.9997887,156.956331 Z M94.9997887,142 C88.9350061,142 84,146.934583 84,152.999789 C84,159.065417 88.9350061,164 94.9997887,164 C101.065417,164 106,159.065417 106,152.999789 C106,146.934161 101.065417,142 94.9997887,142 L94.9997887,142 Z" id="Fill-1" fill="#0A0B09" mask="url(#mask-2)"></path>
                        <path d="M152.423041,36.1482464 L146.537664,53.5136143 L132.27007,48.653763 L138.155447,31.2883951 C138.803015,29.3775183 140.153263,27.8339684 141.959048,26.9421972 C143.763972,26.0495626 145.806997,25.9157537 147.71052,26.5645109 C151.645873,27.9038943 153.75908,32.203475 152.423041,36.1482464 Z M146.965214,200.162076 C146.965214,207.685587 140.858527,213.806695 133.353799,213.806695 L57.7274151,213.806695 C50.2226876,213.806695 44.1168619,207.685587 44.1168619,200.162076 L44.1168619,77.6928744 L53.928981,77.6928744 L53.928981,129.620206 C53.928981,135.550097 58.741393,140.37369 64.6560483,140.37369 C70.5702731,140.37369 75.382685,135.550097 75.382685,129.620206 L75.382685,107.154563 C75.382685,105.191026 76.9753407,103.594384 78.9339755,103.594384 C80.8921798,103.594384 82.485266,105.191026 82.485266,107.154563 L82.485266,118.742841 C82.485266,124.6723 87.2972474,129.496325 93.2119027,129.496325 C99.1261275,129.496325 103.938109,124.6723 103.938109,118.742841 L103.938109,77.8620779 L146.965214,77.6928744 L146.965214,200.162076 L146.965214,200.162076 Z M52.1541969,33.6244387 C55.2525342,34.5520362 58.4318176,35.1438167 61.6343513,35.3954637 L61.6343513,70.4991377 L52.1541969,70.4991377 L52.1541969,33.6244387 Z M57.5530368,21.5233702 C59.959458,22.5614679 62.5566191,23.1122424 65.2226703,23.1122424 C67.8874299,23.1122424 70.4841603,22.5610363 72.8914427,21.5225069 L76.3493008,26.69314 C69.1089395,28.886742 61.3351095,28.886742 54.0943175,26.69314 L57.5530368,21.5233702 Z M65.2222397,10.0555196 L68.7903222,15.3910398 C67.6437307,15.7398061 66.4441799,15.9198006 65.2226703,15.9198006 C64.0002996,15.9198006 62.8003182,15.7402378 61.6537267,15.3914715 L65.2222397,10.0555196 Z M78.289852,70.4995693 L68.8101282,70.4995693 L68.8101282,35.3954637 C72.0122314,35.1438167 75.1915147,34.5516046 78.289852,33.6244387 L78.289852,70.4995693 Z M96.1362923,77.6928744 C96.3395184,77.7576206 96.549203,77.8016481 96.7623321,77.8288415 L96.7623321,118.74241 C96.7623321,120.705515 95.1696765,122.302588 93.2110416,122.302588 C91.2528373,122.302588 89.6597511,120.705515 89.6597511,118.74241 L89.6597511,107.1537 C89.6597511,101.224241 84.8477697,96.4006473 78.933545,96.4006473 C73.0188896,96.4006473 68.2069082,101.224241 68.2069082,107.1537 L68.2069082,129.619775 C68.2069082,131.583312 66.6133915,133.179953 64.6551872,133.179953 C62.6965523,133.179953 61.1038967,131.583312 61.1038967,129.619775 L61.1038967,77.6928744 L96.1362923,77.6928744 Z M101.591536,18.4285008 C101.604884,17.4879541 102.379037,16.7222221 103.317236,16.7222221 C104.255865,16.7222221 105.030019,17.4870908 105.042936,18.4280692 L105.774894,70.4995693 L100.859147,70.4995693 L101.591536,18.4285008 Z M129.961817,55.4642021 L144.228981,60.3240534 L140.780164,70.4995693 L124.866094,70.4995693 L129.961817,55.4642021 Z M36.941085,103.24087 L24.360871,103.24087 C18.3088658,103.24087 13.3849378,108.17669 13.3849378,114.244706 L13.3849378,164.373819 C13.3849378,170.440972 18.3088658,175.377655 24.360871,175.377655 L36.941085,175.377655 L36.941085,181.60322 L23.0700407,181.60322 C14.3050527,181.60322 7.17491569,174.454806 7.17491569,165.66788 L7.17491569,112.950213 C7.17491569,104.163287 14.3050527,97.0153047 23.0700407,97.0153047 L36.941085,97.0153047 L36.941085,103.24087 Z M36.941085,168.18435 L24.360871,168.18435 C22.2648863,168.18435 20.5598535,166.47505 20.5598535,164.373819 L20.5598535,114.244706 C20.5598535,112.143475 22.2648863,110.434175 24.360871,110.434175 L36.941085,110.434175 L36.941085,168.18435 Z M153.275557,21.3330163 L154.802767,16.8253844 C155.440002,14.9447225 154.435927,12.9021951 152.560391,12.2629341 C150.686146,11.6241047 148.646565,12.630261 148.0089,14.5117862 L146.483413,19.0125117 C143.857404,18.7936695 141.211589,19.2913521 138.786223,20.4895888 C135.261628,22.2321255 132.624424,25.2449829 131.36158,28.9739335 L117.287741,70.4995693 L112.951102,70.4995693 L112.217421,18.3274967 C112.149822,13.4762783 108.158065,9.52891705 103.318097,9.52891705 C98.4789901,9.52891705 94.4855106,13.4758466 94.4174815,18.3270651 L93.6842313,70.4995693 L85.4660594,70.4995693 L85.4660594,28.5008545 C85.4660594,27.7873511 85.2546526,27.0906818 84.8581033,26.4980381 L68.202172,1.59405194 C67.5356592,0.597823433 66.4187766,0 65.2222397,0 C64.0261334,0 62.9083897,0.597823433 62.242738,1.59405194 L45.5872373,26.4980381 C45.1915492,27.0906818 44.9792812,27.7873511 44.9792812,28.5008545 L44.9792812,70.4995693 L36.2198906,70.4995693 C34.2380053,70.4995693 32.6324328,72.1100237 32.6324328,74.096006 C32.6324328,76.0824201 34.2380053,77.6928744 36.2198906,77.6928744 L36.9415156,77.6928744 L36.9415156,89.8219997 L23.0704712,89.8219997 C10.3490323,89.8219997 0,100.196934 0,112.950213 L0,165.66788 C0,178.421159 10.3494628,188.796093 23.0704712,188.796093 L36.9415156,188.796093 L36.9415156,200.162076 C36.9415156,211.651941 46.2662365,221 57.7274151,221 L133.35423,221 C144.815408,221 154.140129,211.651941 154.140129,200.162076 L154.140129,77.6928744 L154.861754,77.6928744 C156.84364,77.6928744 158.449643,76.0824201 158.449643,74.096006 C158.449643,72.1100237 156.84364,70.4995693 154.861754,70.4995693 L148.358518,70.4995693 L159.217769,38.4622763 C161.427853,31.9371522 158.800983,24.9160721 153.275557,21.3330163 L153.275557,21.3330163 Z" id="Fill-3" fill="#0A0B09" mask="url(#mask-2)"></path>
                    </g>
                </g>
            </g>
        </g>
    </g>
</svg>